<svg xmlns="http://www.w3.org/2000/svg" version="1.1" xmlns:xlink="http://www.w3.org/1999/xlink" xmlns:svgjs="http://svgjs.dev/svgjs" width="1500" height="234" viewBox="0 0 1500 234"><g transform="matrix(1,0,0,1,-0.9090909090909918,-1.0037110760836896)"><svg viewBox="0 0 396 62" data-background-color="#0c1d36" preserveAspectRatio="xMidYMid meet" height="234" width="1500" xmlns="http://www.w3.org/2000/svg" xmlns:xlink="http://www.w3.org/1999/xlink"><g id="tight-bounds" transform="matrix(1,0,0,1,0.2400000000000091,0.2659405415264473)"><svg viewBox="0 0 395.52 61.468083436813124" height="61.468083436813124" width="395.52"><g><svg viewBox="0 0 435.7052134792986 67.7133" height="61.468083436813124" width="395.52"><g><svg viewBox="0 0 435.7052134792986 67.7133" height="67.7133" width="435.7052134792986"><g id="textblocktransform"><svg viewBox="0 0 435.7052134792986 67.7133" height="67.7133" width="435.7052134792986" id="textblock"><g><svg viewBox="0 0 435.7052134792986 67.7133" height="67.7133" width="435.7052134792986"><g><svg><g></g><g></g></svg></g><g><svg><g></g><g><svg></svg></g></svg></g><g id="text-0"><svg viewBox="0 0 435.7052134792986 67.7133" height="67.7133" width="435.7052134792986"><g transform="matrix(1,0,0,1,0,12.931650000000001)"><svg width="136.72500000000002" viewBox="2.1499999999999995 -40.8 136.71499999999997 41.849999999999994" height="41.85" data-palette-color="#f9cc0b"><path d="M2.3 0.1L2.3 0.1Q2-0.8 2.3-1.7L2.3-1.7 6.45-2.3Q6.65-4.2 6.65-8.15L6.65-8.15 6.65-37.6 2.6-38.1Q2.4-38.85 2.6-39.95L2.6-39.95Q3.35-39.9 4.95-39.9L4.95-39.9Q8.15-39.9 13.23-40.18 18.3-40.45 19.05-40.45L19.05-40.45Q28.85-40.45 33.9-35.15 38.95-29.85 38.95-20.9L38.95-20.9Q38.95-11.8 34.2-5.8 29.45 0.2 20.9 0.2L20.9 0.2Q18.05 0.2 13.35 0.13 8.65 0.05 6.6 0.05L6.6 0.05Q3.7 0.05 2.3 0.1ZM19-2.2L19-2.2Q33.1-2.2 33.1-20.6L33.1-20.6Q33.1-28.55 29.43-33.15 25.75-37.75 18.85-38.05L18.85-38.05Q18.25-38.1 17-38.1L17-38.1Q14.35-38.1 12.2-37.7L12.2-37.7Q12-35.8 12-31.65L12-31.65 12-2.35Q12.6-2.35 14.88-2.27 17.15-2.2 19-2.2ZM52.4-26.7L52.4-26.7 52.3-21.55Q53.55-23.85 55.77-25.78 58-27.7 60-27.7L60-27.7Q61.55-27.7 62.75-27.35L62.75-27.35Q63.15-26.7 63.15-25.65L63.15-25.65Q63.15-24 62.45-22.35L62.45-22.35Q60.65-22.85 59-22.85L59-22.85Q54.9-22.85 52.25-18.85L52.25-18.85 52.15-10.1 52.15-2.55 57.7-1.8Q57.9-1 57.7 0.2L57.7 0.2Q54.55 0.05 50.5 0.05L50.5 0.05Q47.45 0.05 43.25 0.15L43.25 0.15Q42.95-0.8 43.25-1.8L43.25-1.8 47.2-2.35Q47.4-5.1 47.4-8.7L47.4-8.7 47.4-22.4Q47.4-23.4 47.25-24.25L47.25-24.25 43.3-24.75Q43.1-25.5 43.3-26.65L43.3-26.65Q46.75-26.9 51.9-27.7L51.9-27.7Q52.35-27.2 52.4-26.7ZM65.45-13.3L65.45-13.3Q65.45-16.3 66.32-18.93 67.2-21.55 68.84-23.5 70.5-25.45 72.82-26.58 75.15-27.7 78.05-27.7L78.05-27.7Q80.9-27.7 83.25-26.58 85.59-25.45 87.27-23.5 88.95-21.55 89.84-18.93 90.75-16.3 90.75-13.3L90.75-13.3Q90.75-10.2 89.82-7.6 88.9-5 87.22-3.08 85.55-1.15 83.2-0.08 80.84 1 78.05 1L78.05 1Q75.09 1 72.77-0.05 70.45-1.1 68.82-3 67.2-4.9 66.32-7.53 65.45-10.15 65.45-13.3ZM72.75-22.5L72.75-22.5Q70.59-19.45 70.59-13.3L70.59-13.3Q70.59-10.25 71.17-7.95 71.75-5.65 72.75-4.13 73.75-2.6 75.09-1.85 76.45-1.1 78.05-1.1L78.05-1.1Q79.59-1.1 81-1.85 82.4-2.6 83.4-4.13 84.4-5.65 85-7.95 85.59-10.25 85.59-13.3L85.59-13.3Q85.59-16.35 85-18.68 84.4-21 83.37-22.53 82.34-24.05 80.97-24.83 79.59-25.6 78.05-25.6L78.05-25.6Q74.95-25.6 72.75-22.5ZM103.29-18.6L103.29-18.6 103.29-2.55 107.34-1.8Q107.39-1.55 107.42-1.35 107.44-1.15 107.44-0.9L107.44-0.9Q107.44-0.65 107.42-0.38 107.39-0.1 107.34 0.2L107.34 0.2Q104.19 0.05 100.89 0.05L100.89 0.05Q99.74 0.05 98.12 0.08 96.49 0.1 94.39 0.15L94.39 0.15Q94.24-0.3 94.24-0.8L94.24-0.8Q94.24-1.25 94.39-1.8L94.39-1.8 98.34-2.35Q98.44-3.75 98.49-5.33 98.54-6.9 98.54-8.7L98.54-8.7 98.54-19.35Q98.54-22.65 98.39-24.25L98.39-24.25 94.44-24.75Q94.34-25 94.34-25.6L94.34-25.6Q94.34-25.85 94.34-26.1 94.34-26.35 94.44-26.65L94.44-26.65Q97.84-26.85 103.04-27.7L103.04-27.7Q103.49-27.2 103.54-26.7L103.54-26.7Q103.29-25.3 103.29-18.6ZM95.99-36.45L95.99-36.45Q95.89-36.7 95.89-36.98 95.89-37.25 95.89-37.5L95.89-37.5Q95.89-38.85 97.02-39.68 98.14-40.5 99.79-40.5L99.79-40.5Q101.34-40.5 102.32-39.58 103.29-38.65 103.29-37.05L103.29-37.05Q103.29-35.75 102.17-34.95 101.04-34.15 99.29-34.15L99.29-34.15Q98.09-34.15 97.17-34.75 96.24-35.35 95.99-36.45ZM134.69-31.7L134.69-7.1Q134.69-3.75 134.84-2.4L134.84-2.4 138.79-1.9Q138.94-1.1 138.79 0L138.79 0Q135.14 0.15 131.19 0.7L131.19 0.7Q130.84 0.35 130.69-0.25L130.69-0.25 130.44-3.45Q128.69-1.4 126.09-0.18 123.49 1.05 120.64 1.05L120.64 1.05Q116.29 1.05 113.44-2.58 110.59-6.2 110.59-12.25L110.59-12.25Q110.59-19.25 114.32-23.48 118.04-27.7 123.24-27.7L123.24-27.7Q127.34-27.7 129.94-25.75L129.94-25.75 129.94-32.45Q129.94-35.75 129.79-37.35L129.79-37.35 125.84-37.85Q125.64-38.6 125.84-39.75L125.84-39.75Q129.29-40 134.44-40.8L134.44-40.8Q134.89-40.3 134.94-39.8L134.94-39.8Q134.69-38.5 134.69-31.7L134.69-31.7ZM122.84-25L122.84-25Q119.59-25 117.64-21.58 115.69-18.15 115.69-12.1L115.69-12.1Q115.69-7.15 117.52-4.55 119.34-1.95 122.34-1.95L122.34-1.95Q124.14-1.95 126.29-3.08 128.44-4.2 129.94-6.2L129.94-6.2 129.94-22.2Q127.49-25 122.84-25Z" opacity="1" transform="matrix(1,0,0,1,0,0)" fill="#f9cc0b" class="undefined-tk-0"></path></svg></g><g><svg xmlns="http://www.w3.org/2000/svg" xmlns:xlink="http://www.w3.org/1999/xlink" version="1.1" x="152.71170000000004" y="0" viewBox="0 0 100.00000187178263 57.625" enable-background="new 0 0 100 57.625" xml:space="preserve" id="dxe-0" width="117.50681347929856" height="67.7133" class="icon-dxe-0" data-fill-palette-color="accent"><path d="M33.761 35.921C37.495 35.921 41.464 34.721 41.464 32.496V28.298C41.464 28.159 41.449 28.024 41.418 27.893A2 2 0 0 0 41.072 27.156 3 3 0 0 0 40.785 26.824 4 4 0 0 0 40.536 26.603C40.502 26.575 40.465 26.55 40.43 26.523 40.373 26.48 40.317 26.437 40.257 26.396 40.208 26.363 40.157 26.331 40.106 26.299L39.951 26.203A5 5 0 0 0 39.763 26.099C39.717 26.074 39.671 26.049 39.623 26.025A5 5 0 0 0 39.397 25.918L39.275 25.862A7 7 0 0 0 39.011 25.752L38.911 25.713A8 8 0 0 0 38.537 25.58 8 8 0 0 0 38.187 25.469 14 14 0 0 0 35.811 24.993C35.474 24.953 35.133 24.923 34.79 24.903H34.789A18 18 0 0 0 33.761 24.873C30.494 24.873 27.047 25.792 26.237 27.513A1.8 1.8 0 0 0 26.059 28.299V32.497C26.059 34.721 30.028 35.921 33.761 35.921M40.158 32.496C40.158 33.36 37.667 34.615 33.763 34.615V31.722C36.178 31.722 38.684 31.217 40.158 30.26zM27.394 28.132A1 1 0 0 1 27.468 27.978C27.48 27.96 27.495 27.942 27.508 27.924A1 1 0 0 1 27.587 27.821C27.606 27.799 27.63 27.776 27.652 27.753 27.682 27.723 27.713 27.693 27.747 27.663L27.839 27.587 27.944 27.506A4 4 0 0 1 28.177 27.354C28.228 27.324 28.28 27.293 28.335 27.263L28.439 27.208A5 5 0 0 1 28.718 27.074C29.425 26.756 30.388 26.482 31.56 26.324L31.572 26.322C31.74 26.3 31.912 26.279 32.089 26.262L32.11 26.26C32.287 26.242 32.468 26.227 32.653 26.216H32.655A17 17 0 0 1 34.924 26.218 15 15 0 0 1 36.755 26.454 11 11 0 0 1 38.005 26.771C38.173 26.825 38.335 26.881 38.485 26.939L38.491 26.942A7 7 0 0 1 39.349 27.354 3 3 0 0 1 39.688 27.589C39.768 27.653 39.842 27.718 39.902 27.781 40.07 27.96 40.158 28.135 40.158 28.298 40.158 29.162 37.667 30.417 33.762 30.417 33.473 30.417 33.195 30.408 32.923 30.395 32.841 30.392 32.762 30.386 32.682 30.381A16 16 0 0 1 32.109 30.335L31.88 30.312A14 14 0 0 1 31.243 30.226C31.216 30.222 31.186 30.219 31.16 30.214 30.919 30.174 30.689 30.129 30.468 30.08 30.436 30.073 30.406 30.065 30.374 30.059A12 12 0 0 1 29.831 29.919L29.729 29.889C28.803 29.616 28.123 29.267 27.737 28.921L27.694 28.881C27.659 28.848 27.625 28.816 27.596 28.782A1 1 0 0 1 27.493 28.653C27.48 28.634 27.471 28.615 27.46 28.597A1 1 0 0 1 27.391 28.445 0.5 0.5 0 0 1 27.394 28.132" fill="#f9f9f9" data-fill-palette-color="accent"></path><path d="M50.158 29.743C53.892 29.743 57.861 28.542 57.861 26.318V22.119C57.861 21.98 57.845 21.845 57.815 21.714A2 2 0 0 0 57.469 20.977 2.8 2.8 0 0 0 56.934 20.424C56.9 20.397 56.863 20.371 56.828 20.344 56.771 20.301 56.716 20.258 56.655 20.217 56.607 20.184 56.555 20.153 56.505 20.12S56.402 20.056 56.35 20.024A5 5 0 0 0 56.162 19.92L56.021 19.846A7 7 0 0 0 55.795 19.739C55.754 19.72 55.714 19.701 55.672 19.683A8 8 0 0 0 55.408 19.573L55.308 19.534C55.208 19.496 55.108 19.459 55.004 19.423L54.934 19.4C54.819 19.362 54.704 19.324 54.584 19.289A14.4 14.4 0 0 0 52.207 18.812C51.87 18.772 51.529 18.742 51.186 18.722H51.184A17 17 0 0 0 50.157 18.691H50.156C46.889 18.691 43.442 19.61 42.631 21.331A1.8 1.8 0 0 0 42.454 22.117V26.316C42.456 28.542 46.424 29.743 50.158 29.743M56.554 26.318C56.554 27.182 54.064 28.437 50.159 28.437V25.545C52.573 25.545 55.08 25.04 56.554 24.083zM43.79 21.953A1 1 0 0 1 43.865 21.799C43.877 21.781 43.892 21.763 43.905 21.745 43.929 21.711 43.953 21.677 43.984 21.642 44.003 21.62 44.027 21.597 44.049 21.575 44.078 21.545 44.109 21.514 44.143 21.484 44.172 21.459 44.204 21.434 44.236 21.409A2.4 2.4 0 0 1 44.575 21.176C44.625 21.146 44.678 21.115 44.733 21.085 44.766 21.066 44.802 21.048 44.837 21.03 44.902 20.996 44.968 20.963 45.039 20.93 45.063 20.918 45.09 20.907 45.116 20.896 45.823 20.578 46.786 20.304 47.959 20.146L47.971 20.144C48.139 20.122 48.311 20.102 48.487 20.084L48.508 20.082C48.685 20.064 48.866 20.05 49.051 20.038H49.052A17 17 0 0 1 51.321 20.039C51.944 20.081 52.517 20.156 53.043 20.254L53.152 20.275A11 11 0 0 1 54.402 20.592C54.57 20.646 54.732 20.702 54.882 20.76L54.888 20.763A7 7 0 0 1 55.736 21.17L55.746 21.176A3 3 0 0 1 56.299 21.604C56.467 21.783 56.554 21.958 56.554 22.12 56.554 22.984 54.063 24.239 50.158 24.239 49.869 24.239 49.591 24.23 49.319 24.217 49.237 24.214 49.158 24.208 49.078 24.203A17 17 0 0 1 48.505 24.158L48.276 24.135A16 16 0 0 1 47.639 24.049L47.555 24.037A12 12 0 0 1 46.863 23.903C46.831 23.897 46.801 23.888 46.77 23.881 46.58 23.838 46.399 23.791 46.227 23.742L46.125 23.712C45.199 23.438 44.519 23.09 44.133 22.744L44.09 22.704C44.056 22.671 44.022 22.639 43.992 22.606A1 1 0 0 1 43.889 22.476C43.875 22.457 43.867 22.438 43.855 22.42A1 1 0 0 1 43.804 22.316L43.786 22.268A0.5 0.5 0 0 1 43.761 22.122C43.761 22.065 43.771 22.01 43.79 21.953" fill="#f9f9f9" data-fill-palette-color="accent"></path><path d="M66.554 23.564C70.289 23.564 74.257 22.363 74.257 20.139V15.941C74.257 15.802 74.241 15.667 74.211 15.536A2 2 0 0 0 73.865 14.799 2.8 2.8 0 0 0 73.33 14.246C73.296 14.218 73.259 14.193 73.224 14.166 73.167 14.123 73.112 14.08 73.051 14.04 73.002 14.006 72.951 13.975 72.9 13.943L72.746 13.847 72.558 13.743 72.418 13.669A6 6 0 0 0 72.191 13.562L72.069 13.507A7 7 0 0 0 71.805 13.397L71.705 13.358C71.605 13.32 71.504 13.283 71.4 13.247L71.331 13.224C71.216 13.186 71.101 13.149 70.98 13.113A14.3 14.3 0 0 0 68.604 12.636C68.267 12.596 67.926 12.566 67.583 12.546H67.581A17 17 0 0 0 66.554 12.515H66.553C63.286 12.515 59.839 13.434 59.029 15.155A1.8 1.8 0 0 0 58.851 15.941V20.139C58.852 22.364 62.821 23.564 66.554 23.564M72.951 20.139C72.951 21.003 70.462 22.258 66.556 22.258V19.366C68.971 19.366 71.477 18.861 72.951 17.904zM60.186 15.775A1 1 0 0 1 60.261 15.621L60.3 15.567C60.324 15.533 60.349 15.499 60.379 15.464L60.444 15.397C60.473 15.367 60.504 15.337 60.538 15.307 60.567 15.282 60.599 15.257 60.631 15.231A2.4 2.4 0 0 1 60.969 14.998C61.019 14.967 61.072 14.937 61.127 14.907 61.16 14.888 61.196 14.87 61.231 14.852 61.296 14.818 61.362 14.785 61.433 14.752 61.457 14.74 61.485 14.729 61.509 14.718 62.216 14.4 63.18 14.126 64.353 13.968L64.365 13.967C64.533 13.944 64.705 13.924 64.881 13.907L64.902 13.905C65.079 13.888 65.259 13.873 65.445 13.861H65.447A17 17 0 0 1 67.715 13.863C68.338 13.905 68.912 13.98 69.438 14.078L69.547 14.099A11 11 0 0 1 70.795 14.416C70.964 14.47 71.125 14.526 71.275 14.584L71.282 14.586C71.428 14.643 71.561 14.702 71.689 14.762L71.782 14.806A5 5 0 0 1 72.14 14.998 3 3 0 0 1 72.478 15.233C72.558 15.297 72.631 15.361 72.692 15.425 72.86 15.604 72.948 15.779 72.948 15.942 72.948 16.806 70.458 18.061 66.552 18.061 66.263 18.061 65.986 18.052 65.712 18.039 65.631 18.035 65.552 18.029 65.472 18.024A16 16 0 0 1 64.033 17.87C64.005 17.866 63.975 17.863 63.949 17.858A13 13 0 0 1 63.257 17.725L63.164 17.703C62.974 17.659 62.793 17.613 62.62 17.563L62.518 17.533C61.592 17.259 60.913 16.911 60.526 16.565L60.483 16.525A2 2 0 0 1 60.385 16.426 1 1 0 0 1 60.282 16.297C60.268 16.278 60.26 16.259 60.249 16.24A1 1 0 0 1 60.197 16.136L60.179 16.087A0.5 0.5 0 0 1 60.154 15.941 0.7 0.7 0 0 1 60.186 15.775" fill="#f9f9f9" data-fill-palette-color="accent"></path><path d="M100 14.358L99.999 14.35A0.6 0.6 0 0 0 99.973 14.181C99.968 14.16 99.958 14.142 99.952 14.123A0.6 0.6 0 0 0 99.782 13.876C99.767 13.863 99.754 13.849 99.738 13.836 99.731 13.831 99.726 13.824 99.718 13.819A0.7 0.7 0 0 0 99.583 13.748L99.58 13.747 99.577 13.745 90.654 10.329V9.762C90.654 9.623 90.638 9.488 90.608 9.357A2 2 0 0 0 90.262 8.62 2.8 2.8 0 0 0 89.727 8.067C89.693 8.04 89.656 8.014 89.621 7.987 89.564 7.944 89.509 7.901 89.448 7.86 89.399 7.827 89.348 7.795 89.297 7.763L89.143 7.667A6 6 0 0 0 88.815 7.489 5 5 0 0 0 88.588 7.382L88.466 7.326A7 7 0 0 0 88.202 7.216L88.102 7.177A8 8 0 0 0 87.728 7.044 10 10 0 0 0 87.377 6.933 14 14 0 0 0 85 6.458C84.664 6.418 84.323 6.388 83.98 6.368H83.978A18 18 0 0 0 82.951 6.338H82.95C82.174 6.338 81.388 6.391 80.63 6.494L74.099 3.994V3.425C74.099 3.286 74.084 3.151 74.054 3.02A2 2 0 0 0 73.708 2.283 3 3 0 0 0 73.421 1.951 3 3 0 0 0 73.172 1.73C73.139 1.703 73.102 1.677 73.067 1.65 73.01 1.607 72.955 1.564 72.894 1.523 72.845 1.49 72.794 1.458 72.744 1.426L72.589 1.33C72.528 1.294 72.464 1.26 72.401 1.226L72.26 1.152A4 4 0 0 0 72.035 1.045L71.912 0.989A7 7 0 0 0 71.648 0.879L71.548 0.84A9 9 0 0 0 70.824 0.596 14 14 0 0 0 68.447 0.12C68.11 0.08 67.769 0.05 67.426 0.03H67.425C67.083 0.01 66.74 0 66.398 0H66.397C63.13 0 59.682 0.919 58.872 2.64A1.8 1.8 0 0 0 58.695 3.426V3.829L52.117 6.308 52.281 6.331 52.052 6.299C51.715 6.259 51.374 6.229 51.031 6.209H51.03C50.687 6.189 50.344 6.178 50.002 6.178 46.735 6.178 43.288 7.097 42.477 8.818A1.8 1.8 0 0 0 42.3 9.604V10.007L35.721 12.486 35.794 12.496C35.748 12.49 35.703 12.482 35.657 12.477 35.32 12.437 34.978 12.407 34.636 12.387A17 17 0 0 0 33.608 12.356C30.341 12.356 26.894 13.275 26.084 14.996A1.8 1.8 0 0 0 25.906 15.782V16.185L19.327 18.664C19.379 18.67 19.429 18.679 19.48 18.686 19.407 18.676 19.336 18.665 19.263 18.656 18.926 18.616 18.585 18.586 18.242 18.566H18.241A18 18 0 0 0 17.213 18.536C13.946 18.536 10.499 19.455 9.689 21.176A1.8 1.8 0 0 0 9.511 21.962V22.365L0.43 25.787H0.429L0.425 25.789A0.7 0.7 0 0 0 0.29 25.859L0.273 25.874C0.256 25.887 0.242 25.901 0.227 25.915A0.6 0.6 0 0 0 0.057 26.161C0.05 26.18 0.041 26.198 0.036 26.217A0.7 0.7 0 0 0 0.009 26.388C0.001 26.391 0 26.393 0 26.396V44.299C0 44.57 0.167 44.812 0.419 44.908L33.527 57.582C33.533 57.584 33.539 57.583 33.545 57.586 33.615 57.609 33.687 57.625 33.76 57.625A0.6 0.6 0 0 0 33.972 57.586C33.978 57.585 33.984 57.586 33.99 57.583L99.576 32.869A0.65 0.65 0 0 0 100 32.258zM80.762 7.787C80.931 7.765 81.102 7.744 81.279 7.727L81.3 7.725C81.478 7.707 81.658 7.693 81.844 7.681H81.846A17 17 0 0 1 84.114 7.682 15 15 0 0 1 85.945 7.918 11 11 0 0 1 87.194 8.235 8 8 0 0 1 87.681 8.406 7 7 0 0 1 88.539 8.818 3 3 0 0 1 88.877 9.053C88.957 9.117 89.031 9.182 89.091 9.246 89.26 9.424 89.347 9.6 89.347 9.762 89.347 10.626 86.856 11.881 82.951 11.881 82.662 11.881 82.384 11.872 82.111 11.859 82.029 11.856 81.95 11.85 81.87 11.845A19 19 0 0 1 81.297 11.8L81.068 11.777A16 16 0 0 1 80.431 11.691C80.404 11.686 80.374 11.683 80.348 11.679 80.107 11.639 79.877 11.595 79.656 11.545L79.562 11.523A10 10 0 0 1 79.019 11.383L78.917 11.354C77.991 11.08 77.311 10.732 76.925 10.386L76.882 10.346C76.848 10.313 76.814 10.281 76.783 10.247A2 2 0 0 1 76.68 10.118C76.667 10.099 76.658 10.08 76.647 10.062A1 1 0 0 1 76.596 9.958L76.577 9.91A0.6 0.6 0 0 1 76.553 9.764 0.6 0.6 0 0 1 76.581 9.598 1 1 0 0 1 76.656 9.444C76.667 9.426 76.682 9.408 76.695 9.39 76.719 9.356 76.744 9.322 76.774 9.287 76.793 9.265 76.817 9.242 76.838 9.219 76.868 9.189 76.899 9.159 76.933 9.129 76.962 9.104 76.994 9.079 77.026 9.053A2 2 0 0 1 77.254 8.889L77.363 8.82C77.414 8.79 77.466 8.759 77.522 8.729 77.555 8.71 77.59 8.693 77.626 8.674 77.692 8.64 77.758 8.607 77.829 8.574 77.853 8.562 77.88 8.551 77.905 8.54 78.612 8.222 79.576 7.948 80.748 7.79zM89.347 11.725V13.96C89.347 14.824 86.857 16.079 82.952 16.079V13.187C85.367 13.187 87.874 12.682 89.347 11.725M60.029 3.259A1 1 0 0 1 60.104 3.105L60.143 3.051C60.167 3.017 60.192 2.983 60.222 2.948L60.286 2.88C60.316 2.85 60.347 2.82 60.381 2.79 60.41 2.765 60.442 2.74 60.474 2.715A2 2 0 0 1 60.702 2.55 4 4 0 0 1 60.97 2.39L61.074 2.335A5 5 0 0 1 61.352 2.201C62.059 1.883 63.023 1.609 64.195 1.451L64.207 1.449C64.376 1.427 64.548 1.407 64.724 1.389L64.745 1.387C64.923 1.369 65.103 1.355 65.289 1.343H65.291A17 17 0 0 1 67.559 1.344C68.182 1.386 68.756 1.461 69.282 1.559L69.39 1.58C69.806 1.661 70.188 1.757 70.536 1.864L70.64 1.897C70.808 1.951 70.97 2.006 71.12 2.065L71.126 2.068A7 7 0 0 1 71.974 2.475L71.983 2.481C72.085 2.542 72.175 2.604 72.257 2.667L72.322 2.716C72.402 2.78 72.476 2.845 72.537 2.909 72.704 3.087 72.793 3.263 72.793 3.425 72.793 4.289 70.302 5.544 66.397 5.544 66.108 5.544 65.83 5.535 65.557 5.522 65.475 5.519 65.396 5.513 65.316 5.508A19 19 0 0 1 64.743 5.463L64.514 5.44A16 16 0 0 1 63.876 5.354L63.793 5.342C63.552 5.302 63.322 5.258 63.101 5.208 63.069 5.202 63.039 5.193 63.007 5.186 62.818 5.143 62.637 5.096 62.464 5.047L62.362 5.017C61.436 4.743 60.756 4.395 60.37 4.049L60.327 4.009C60.294 3.976 60.26 3.943 60.23 3.91A2 2 0 0 1 60.127 3.78C60.114 3.761 60.105 3.742 60.094 3.724A1 1 0 0 1 60.043 3.62L60.024 3.572A0.6 0.6 0 0 1 60 3.425C60 3.372 60.01 3.316 60.029 3.259M72.794 5.388V7.624C72.794 8.487 70.303 9.743 66.398 9.743V6.851C68.814 6.85 71.32 6.345 72.794 5.388M43.632 9.438A1 1 0 0 1 43.707 9.284C43.719 9.266 43.734 9.248 43.747 9.23 43.771 9.196 43.796 9.162 43.827 9.127 43.846 9.105 43.87 9.082 43.891 9.06 43.921 9.03 43.952 9 43.986 8.97L44.078 8.894 44.183 8.813A4 4 0 0 1 44.575 8.57C44.608 8.551 44.644 8.533 44.679 8.515A5 5 0 0 1 44.882 8.415C44.906 8.403 44.933 8.392 44.958 8.381 45.666 8.063 46.629 7.789 47.801 7.631L47.813 7.63C47.981 7.608 48.153 7.587 48.33 7.57L48.351 7.568C48.528 7.55 48.709 7.535 48.894 7.524H48.896A17 17 0 0 1 51.163 7.524C51.786 7.566 52.359 7.641 52.885 7.739L52.994 7.76C53.409 7.841 53.792 7.937 54.14 8.044L54.244 8.077C54.413 8.131 54.574 8.187 54.724 8.245L54.731 8.247C54.876 8.304 55.009 8.363 55.137 8.423L55.23 8.467A5 5 0 0 1 55.588 8.659C55.69 8.72 55.779 8.783 55.862 8.845L55.926 8.894C56.006 8.958 56.08 9.022 56.141 9.086 56.309 9.265 56.397 9.44 56.397 9.603 56.397 10.467 53.905 11.722 50 11.722 49.711 11.722 49.433 11.713 49.161 11.7 49.079 11.696 49 11.69 48.92 11.685A17 17 0 0 1 48.118 11.617 13 13 0 0 1 47.481 11.531C47.453 11.527 47.424 11.524 47.398 11.519 47.157 11.479 46.927 11.434 46.706 11.385L46.612 11.363C46.423 11.319 46.242 11.273 46.069 11.223L45.967 11.193C45.041 10.919 44.361 10.571 43.975 10.225L43.932 10.185C43.898 10.152 43.864 10.119 43.834 10.086A1 1 0 0 1 43.731 9.957C43.718 9.938 43.709 9.919 43.698 9.901A1 1 0 0 1 43.647 9.797L43.629 9.748A0.5 0.5 0 0 1 43.604 9.602C43.604 9.55 43.614 9.495 43.632 9.438M56.398 11.566V13.802C56.398 14.666 53.907 15.921 50.002 15.921V13.029C52.417 13.028 54.923 12.524 56.398 11.566M27.236 15.617A0.7 0.7 0 0 1 27.311 15.463C27.322 15.445 27.337 15.427 27.351 15.409 27.375 15.375 27.4 15.341 27.43 15.306L27.495 15.239C27.525 15.209 27.555 15.178 27.589 15.149A4 4 0 0 1 27.787 14.992C27.826 14.964 27.867 14.936 27.91 14.909L28.02 14.84C28.07 14.809 28.123 14.778 28.178 14.749 28.212 14.73 28.248 14.712 28.283 14.694 28.348 14.66 28.414 14.627 28.485 14.594 28.509 14.582 28.536 14.571 28.562 14.56 29.269 14.242 30.232 13.968 31.405 13.81L31.417 13.808C31.585 13.786 31.757 13.766 31.933 13.748L31.954 13.746C32.131 13.728 32.312 13.714 32.497 13.702H32.498A17 17 0 0 1 34.767 13.703C35.39 13.745 35.964 13.82 36.489 13.918L36.598 13.939C37.014 14.02 37.396 14.116 37.743 14.223L37.848 14.256C38.016 14.31 38.178 14.366 38.328 14.424L38.334 14.426C38.479 14.483 38.613 14.542 38.74 14.602L38.833 14.646C38.957 14.708 39.076 14.77 39.181 14.833L39.19 14.839C39.292 14.9 39.381 14.962 39.464 15.025 39.486 15.042 39.508 15.058 39.528 15.075 39.608 15.139 39.683 15.203 39.743 15.267 39.91 15.446 39.998 15.621 39.998 15.783 39.998 16.647 37.506 17.903 33.602 17.903 33.313 17.903 33.035 17.894 32.762 17.881 32.68 17.877 32.601 17.871 32.521 17.866A17 17 0 0 1 31.948 17.821L31.719 17.798A16 16 0 0 1 31.082 17.712L30.998 17.7A13 13 0 0 1 30.306 17.567L30.213 17.545A10 10 0 0 1 29.67 17.406L29.568 17.376C28.642 17.102 27.962 16.754 27.576 16.408L27.534 16.368C27.499 16.335 27.465 16.303 27.436 16.27A1 1 0 0 1 27.333 16.14C27.32 16.121 27.311 16.102 27.3 16.084A1 1 0 0 1 27.231 15.932 0.5 0.5 0 0 1 27.206 15.786 0.6 0.6 0 0 1 27.236 15.617M40.001 17.745V19.981C40.001 20.845 37.51 22.1 33.605 22.1V19.208C36.021 19.207 38.527 18.702 40.001 17.745M10.84 21.795A1 1 0 0 1 10.915 21.641C10.926 21.623 10.941 21.605 10.955 21.587 10.979 21.553 11.003 21.518 11.034 21.484L11.099 21.416C11.128 21.386 11.159 21.356 11.193 21.326 11.222 21.301 11.254 21.276 11.285 21.251A3 3 0 0 1 11.513 21.086 4 4 0 0 1 11.781 20.926L11.886 20.871A5 5 0 0 1 12.165 20.737C12.872 20.419 13.835 20.145 15.007 19.987L15.019 19.985C15.187 19.963 15.359 19.942 15.536 19.925L15.557 19.923C15.734 19.905 15.915 19.89 16.1 19.879H16.102A17 17 0 0 1 18.371 19.881C18.994 19.923 19.567 19.998 20.093 20.096 20.13 20.103 20.166 20.109 20.202 20.117 20.618 20.198 21 20.294 21.348 20.401L21.453 20.434C21.621 20.488 21.784 20.543 21.933 20.602L21.939 20.605C22.084 20.662 22.218 20.721 22.346 20.781L22.439 20.825A5 5 0 0 1 22.796 21.018C22.898 21.08 22.988 21.142 23.07 21.204L23.135 21.253C23.215 21.317 23.29 21.382 23.35 21.445 23.517 21.624 23.606 21.799 23.606 21.962 23.606 22.826 21.114 24.081 17.209 24.081 16.92 24.081 16.642 24.072 16.37 24.059 16.288 24.056 16.209 24.05 16.129 24.045A19 19 0 0 1 15.556 24L15.327 23.977A16 16 0 0 1 14.69 23.891L14.607 23.879C14.366 23.839 14.136 23.795 13.915 23.745L13.821 23.723A10 10 0 0 1 13.278 23.584L13.176 23.554C12.25 23.28 11.57 22.932 11.184 22.586L11.141 22.546C11.106 22.513 11.072 22.481 11.043 22.447A1 1 0 0 1 10.94 22.318C10.927 22.299 10.918 22.28 10.907 22.262A1 1 0 0 1 10.838 22.11 0.48 0.48 0 0 1 10.84 21.795M23.605 23.924V26.159C23.605 27.023 21.114 28.278 17.209 28.278V25.386C19.624 25.386 22.13 24.881 23.605 23.924M17.207 29.584C20.942 29.584 24.91 28.383 24.91 26.159V21.961C24.91 21.822 24.895 21.687 24.865 21.556A2 2 0 0 0 24.52 20.819 3 3 0 0 0 24.232 20.487 3 3 0 0 0 23.983 20.266C23.95 20.239 23.912 20.213 23.877 20.186 23.82 20.143 23.765 20.1 23.704 20.059 23.656 20.026 23.604 19.994 23.554 19.962L23.399 19.866A5 5 0 0 0 23.211 19.762L23.07 19.688A5 5 0 0 0 22.845 19.581L22.721 19.525A6 6 0 0 0 22.457 19.415L22.357 19.376A9 9 0 0 0 21.714 19.158L25.9 17.581V19.98C25.9 22.204 29.868 23.405 33.602 23.405S41.305 22.204 41.305 19.98V15.781C41.305 15.642 41.289 15.508 41.26 15.376A2 2 0 0 0 40.915 14.639 3 3 0 0 0 40.627 14.307 3 3 0 0 0 40.379 14.086C40.346 14.059 40.308 14.033 40.273 14.006 40.216 13.963 40.161 13.92 40.1 13.879 40.052 13.846 40 13.815 39.95 13.782 39.899 13.75 39.848 13.718 39.794 13.686A4 4 0 0 0 39.606 13.582L39.466 13.508A6 6 0 0 0 39.117 13.346 6 6 0 0 0 38.854 13.236L38.754 13.197C38.654 13.159 38.553 13.122 38.45 13.086L38.38 13.063A9 9 0 0 0 38.111 12.978L42.297 11.4V13.8C42.297 16.025 46.265 17.225 49.999 17.225S57.702 16.024 57.702 13.8V9.604C57.702 9.465 57.686 9.33 57.657 9.199A2 2 0 0 0 57.311 8.462 3 3 0 0 0 57.023 8.13 3 3 0 0 0 56.775 7.909C56.742 7.881 56.704 7.856 56.669 7.829 56.612 7.786 56.557 7.743 56.496 7.703 56.447 7.669 56.396 7.638 56.346 7.606L56.191 7.51C56.13 7.475 56.067 7.441 56.003 7.406L55.863 7.332A5 5 0 0 0 55.637 7.225C55.597 7.206 55.555 7.188 55.514 7.17A6 6 0 0 0 55.25 7.06L55.15 7.021C55.05 6.983 54.949 6.946 54.846 6.91L54.776 6.887 54.507 6.801 58.693 5.224V7.624C58.693 9.848 62.662 11.049 66.395 11.049 70.13 11.049 74.097 9.848 74.097 7.624V5.391L78.301 7.001C76.913 7.446 75.832 8.109 75.423 8.977A1.8 1.8 0 0 0 75.246 9.763V13.961C75.246 16.186 79.214 17.386 82.948 17.386S90.651 16.185 90.651 13.961V11.728L97.505 14.352 33.763 38.372 3.866 26.928 2.492 26.402 9.505 23.759V26.158C9.505 28.384 13.474 29.584 17.207 29.584M98.695 31.807L34.414 56.028V39.522L98.695 15.3z" fill="#f9f9f9" data-fill-palette-color="accent"></path></svg></g><g transform="matrix(1,0,0,1,286.2052134792986,12.931649999999998)"><svg width="149.5" viewBox="2.6 -40.8 149.49 41.8" height="41.800000000000004" data-palette-color="#f9cc0b"><path d="M22.6-40.8L22.6-40.8Q27.5-40.8 31.4-39.05 35.3-37.3 37.7-34.38 40.1-31.45 41.38-27.88 42.65-24.3 42.65-20.4L42.65-20.4Q42.65-11.4 37-5.2 31.35 1 22.6 1L22.6 1Q17.75 1 13.85-0.75 9.95-2.5 7.55-5.43 5.15-8.35 3.88-11.9 2.6-15.45 2.6-19.3L2.6-19.3Q2.6-25.05 5.13-29.95 7.65-34.85 12.28-37.83 16.9-40.8 22.6-40.8ZM22.55-1.75L22.55-1.75Q27.25-1.75 30.53-4.48 33.8-7.2 35.23-11.35 36.65-15.5 36.65-20.6L36.65-20.6Q36.65-25.45 35.23-29.28 33.8-33.1 30.55-35.58 27.3-38.05 22.55-38.05L22.55-38.05Q15.7-38.05 12.15-33.05 8.6-28.05 8.6-20.55L8.6-20.55Q8.6-15.4 10-11.28 11.4-7.15 14.65-4.45 17.9-1.75 22.55-1.75ZM71.1-26.7L71.1-26.7 71.1-7.1Q71.1-3.75 71.25-2.4L71.25-2.4 75.2-1.9Q75.35-1.1 75.2 0L75.2 0Q71.55 0.15 67.6 0.7L67.6 0.7Q67.25 0.35 67.1-0.25L67.1-0.25 66.85-4.7Q64.75-2 62.52-0.5 60.3 1 57.3 1L57.3 1Q54.25 1 52.17-0.55 50.1-2.1 50.1-5.85L50.1-5.85 50.1-16.95Q50.1-22.65 49.95-24.25L49.95-24.25 46-24.75Q45.8-25.5 46-26.65L46-26.65Q49.45-26.9 54.6-27.7L54.6-27.7Q55.05-27.2 55.1-26.7L55.1-26.7Q54.85-25.4 54.85-8.35L54.85-8.35Q54.85-4.85 55.67-3.38 56.5-1.9 58.75-1.9L58.75-1.9Q62.95-1.9 66.35-6.9L66.35-6.9 66.35-17Q66.35-22.65 66.2-24.25L66.2-24.25 62.25-24.75Q62.05-25.5 62.25-26.65L62.25-26.65Q65.25-26.85 70.6-27.7L70.6-27.7Q71.05-27.2 71.1-26.7ZM85.55-32.7L85.55-32.7 85.55-25.55 92.6-25.55Q92.7-24.95 92.7-24.65L92.7-24.65Q92.7-24.2 92.6-23.6L92.6-23.6 85.55-22.55 85.55-8.8Q85.55-5.1 86.22-3.58 86.9-2.05 88.35-2.05L88.35-2.05Q89.65-2.05 92.4-3.1L92.4-3.1Q92.9-2.65 93.1-1.4L93.1-1.4Q91.6-0.5 90.82-0.08 90.05 0.35 88.87 0.68 87.7 1 86.4 1L86.4 1Q83.9 1 82.32-0.93 80.75-2.85 80.75-6.8L80.75-6.8 80.75-23.15 77.25-23.6Q77.15-24.1 77.15-24.45L77.15-24.45Q77.15-24.85 77.25-25.55L77.25-25.55Q78.65-25.8 79.67-26.43 80.7-27.05 81.4-28.18 82.1-29.3 82.47-30.18 82.85-31.05 83.4-32.7L83.4-32.7Q83.85-32.85 84.5-32.85L84.5-32.85Q85.1-32.85 85.55-32.7ZM103.69-31.7L103.69-31.7 103.69-2.55 107.74-1.8Q107.94-1 107.74 0.2L107.74 0.2Q104.59 0.05 101.29 0.05L101.29 0.05Q98.99 0.05 94.79 0.15L94.79 0.15Q94.49-0.8 94.79-1.8L94.79-1.8 98.74-2.35Q98.94-5.1 98.94-8.7L98.94-8.7 98.94-37.35 94.84-37.85Q94.64-38.6 94.84-39.75L94.84-39.75Q98.29-40 103.44-40.8L103.44-40.8Q103.89-40.3 103.94-39.8L103.94-39.8Q103.69-38.5 103.69-31.7ZM131.84-14.1L131.84-14.1 116.14-14.1Q115.69-1.35 123.79-1.35L123.79-1.35Q127.24-1.35 130.84-4.4L130.84-4.4Q131.59-3.95 131.99-2.85L131.99-2.85Q128.54 1 123.24 1L123.24 1Q111.04 1 111.04-13.35L111.04-13.35Q111.04-20.15 114.64-23.93 118.24-27.7 123.04-27.7L123.04-27.7Q128.29-27.7 130.59-24.05 132.89-20.4 132.89-14.55L132.89-14.55Q132.39-14.15 131.84-14.1ZM122.94-25.7L122.94-25.7Q120.34-25.7 118.52-23 116.69-20.3 116.29-16.1L116.29-16.1 122.49-16.1Q126.19-16.1 127.79-16.55L127.79-16.55Q127.79-20.65 126.54-23.18 125.29-25.7 122.94-25.7ZM144.54-32.7L144.54-32.7 144.54-25.55 151.59-25.55Q151.69-24.95 151.69-24.65L151.69-24.65Q151.69-24.2 151.59-23.6L151.59-23.6 144.54-22.55 144.54-8.8Q144.54-5.1 145.21-3.58 145.89-2.05 147.34-2.05L147.34-2.05Q148.64-2.05 151.39-3.1L151.39-3.1Q151.89-2.65 152.09-1.4L152.09-1.4Q150.59-0.5 149.81-0.08 149.04 0.35 147.86 0.68 146.69 1 145.39 1L145.39 1Q142.89 1 141.31-0.93 139.74-2.85 139.74-6.8L139.74-6.8 139.74-23.15 136.24-23.6Q136.14-24.1 136.14-24.45L136.14-24.45Q136.14-24.85 136.24-25.55L136.24-25.55Q137.64-25.8 138.66-26.43 139.69-27.05 140.39-28.18 141.09-29.3 141.46-30.18 141.84-31.05 142.39-32.7L142.39-32.7Q142.84-32.85 143.49-32.85L143.49-32.85Q144.09-32.85 144.54-32.7Z" opacity="1" transform="matrix(1,0,0,1,0,0)" fill="#f9cc0b" class="undefined-tk-1"></path></svg></g></svg></g></svg></g></svg></g></svg></g></svg></g><defs></defs></svg><rect width="395.52" height="61.468083436813124" fill="none" stroke="none" visibility="hidden"></rect></g></svg></g></svg>